<?xml version="1.0" encoding="utf-8"?>
<!-- Generator: Adobe Illustrator 17.0.0, SVG Export Plug-In . SVG Version: 6.00 Build 0)  -->
<!DOCTYPE svg PUBLIC "-//W3C//DTD SVG 1.0//EN" "http://www.w3.org/TR/2001/REC-SVG-20010904/DTD/svg10.dtd" [
	<!ENTITY ns_flows "http://ns.adobe.com/Flows/1.0/">
	<!ENTITY ns_extend "http://ns.adobe.com/Extensibility/1.0/">
	<!ENTITY ns_ai "http://ns.adobe.com/AdobeIllustrator/10.0/">
	<!ENTITY ns_graphs "http://ns.adobe.com/Graphs/1.0/">
	<!ENTITY ns_vars "http://ns.adobe.com/Variables/1.0/">
	<!ENTITY ns_imrep "http://ns.adobe.com/ImageReplacement/1.0/">
	<!ENTITY ns_sfw "http://ns.adobe.com/SaveForWeb/1.0/">
	<!ENTITY ns_custom "http://ns.adobe.com/GenericCustomNamespace/1.0/">
	<!ENTITY ns_adobe_xpath "http://ns.adobe.com/XPath/1.0/">
]>
<svg version="1.0" id="Layer_1" xmlns:x="&ns_extend;" xmlns:i="&ns_ai;" xmlns:graph="&ns_graphs;"
	 xmlns="http://www.w3.org/2000/svg" xmlns:xlink="http://www.w3.org/1999/xlink" xmlns:a="http://ns.adobe.com/AdobeSVGViewerExtensions/3.0/"
	 x="0px" y="0px" width="1400px" height="980px" viewBox="0 0 1400 980" enable-background="new 0 0 1400 980" xml:space="preserve"
	>
<metadata>
	<sfw  xmlns="&ns_sfw;">
		<slices></slices>
		<sliceSourceBounds  width="1580.4" height="1293.3" bottomLeftOrigin="true" x="-94.5" y="-1138"></sliceSourceBounds>
	</sfw>
</metadata>
<rect fill="#F7941E" width="1400" height="980"/>
<g>
	<defs>
		<rect id="SVGID_1_" width="1400" height="980"/>
	</defs>
	<clipPath id="SVGID_2_">
		<use xlink:href="#SVGID_1_"  overflow="visible"/>
	</clipPath>
	<g clip-path="url(#SVGID_2_)">
		<path d="M199.1,951.7c22.7-33.4,47-60.7,78.2-86.3c49.4-40.6,83-90.8,101.9-151.5c17.5-56.1,26.2-112.4,53.6-165.4
			c32.3-62.7,82.7-117.5,139.4-158.9c-33.9,37.2-56.2,83.2-83.1,125.8c-28.5,45.1-26.4,88.5-28.9,139.9
			C456,739.4,375,783.3,346.2,856c58.8-34,128.4-55.1,172.1-110.9c22.1-28.2,38.3-64.7,51.6-97.5c10.1-25,24.6-47.5,35.7-72
			c6.2-13.6,10-35.5,19.2-46.4c-1.9,21.6-7.1,44.3-9.9,66.2c-2.9,23-10.4,45.4-6.8,68.7c6.7,42.5,24.1,80.5,20,124.8
			c-5.6,59.6-51,107.4-82.9,154.5c-37.6,55.6-82.6,105.3-122.8,158.2c11.2-32.7,34.5-64.7,50.8-95.5c22.5-42.7,43.4-85.7,69.7-126.1
			c19.8-30.4,32.1-53.7,32.6-91c0.4-25.2,12.4-60.9,3.3-84.2c-2.3,89.7-79.3,163.2-159.4,190.4c-22.1,7.5-45.2,12.6-67.1,21
			c-25.3,9.7-49.9,24.5-72.8,39c-26.4,16.7-48,39.3-74.6,55.5c-8.4,5.1-17,10.5-24.3,17.3c-5.3,5-10.2,16-17.1,16.4
			C158.4,1009.4,180.6,978.9,199.1,951.7z"/>
		<path d="M866.9-70c-26.8,26-43.2,58.8-52.5,94.6c-8.5,32.7-15.5,63.2-15,97.2c0.5,33.3,2.9,64.9-2.6,97.9
			c-3.9,23.4-3.1,47-7.5,70.5c-4.9,26.4-15.5,50.6-23,76.2c-6.7,22.7-17.1,41.1-28.7,61.9c-5.7,10.1-11.2,27-20.1,34.5
			c23-4.3,44.8-36.1,60.6-52.2c24.1-24.6,50.8-49.5,68-79.6c30.9-54.1,67-97.1,120-131.2c49.3-31.7,99.5-80.5,112.5-140.2
			c7-32.2,6-65.1,6-97.9c0-17.2,4.9-46.7-3-62.5c-0.7,17.8-13.1,37.5-18,54.7c-7.1,24.8-12.7,52-24.1,75.1
			c-16.4,33.2-49.1,59.8-74.6,86.2c-23.8,24.5-49.9,48.1-71.9,74.5c-20.8,24.8-45,54.7-59.8,83.4c7.1-18.3,20.4-32.6,26.2-51.8
			c6.4-21.2,9.3-41.4,9.3-63.5c0-36.7-3.8-73.7-0.1-110.2c5-49.2,14-136.7,70.1-154.9c-15.8-0.2-33.8,4.2-47.2,12.8
			C881.4-88.4,875.3-78.2,866.9-70z"/>
		<path d="M478.1-40.8c7-8.8,16.2-15.5,22.4-25c-29.1-8.8-59.5,17.6-77.2,38.6C402.8-3,389.3,26.4,377.5,55.6
			c-20.3,49.9-38.7,101.2-70.7,145c-24.1,33-59.6,55.7-92.4,79.2c-30.7,22-56.8,48-85.9,71.8c0.6-15.4,16.1-32.1,23.1-45.4
			c9.7-18.6,19.5-35.9,31.1-53.5c13.3-20.2,22.5-42.3,36-62.3c12.4-18.4,25.2-35.8,32.7-56.9c4.9-14,8.8-28.3,14.1-42.2
			c7.1-18.5,17.1-34.8,22.2-54.1c8.9-33.6,31.8-65.8,36.2-100.1C280.2-36.5,245.3,5.2,206.7,38.2C181.3,59.9,153,78,128.6,100.5
			c-10.4,9.6-22.4,17.3-32.7,26.6c-6.8,6.1-11,15-16.7,22.2c-13.1,16.4-32.4,27-42.1,46.4c-0.2-18.4,9.2-36.2,15-53.5
			c7.6-22.6,16.3-44.9,27.4-65.9c13.3-25.1,19.1-53.3,29.6-79.6c8.2-20.4,23.7-38.2,31.4-58.4c-37.2,21.6-58,74.1-71.9,112.5
			C57.6,81.3,39,104,17.3,127.5c-32.4,35.1-60.1,75.3-83.5,116.4c15.1,1.4,29.4-2.9,43.8-7.3c18.5-5.6,35.9-8.7,54.7-12.4
			c29.4-5.7,63.7-32,84.3-53.5c22.1-23,43.9-42.3,69.4-61.6c18.6-14.1,44.3-32.2,53-54c-32.3,43.3-63.9,83.2-77.9,136.2
			c-10.4,39.4-24.5,73.9-44.3,109.5C96.8,336.8,74.2,372,53.2,407.7c-23.1,39.4-56.1,70.5-76.3,111.9C-4,501.4,18.3,486.4,36.6,468
			c17.3-17.3,39.8-24.4,63.6-27.4c25.1-3.1,34.2-15.1,50.8-32.9c32.5-34.9,71.1-63.4,109.6-91.2c55.9-40.4,123.2-62.4,155.9-127.8
			c15-30,13.5-63.9,18.5-96.3c5.4-34.9,8.1-69.8,23.6-101.9C463.9-20.6,470.6-31.3,478.1-40.8z"/>
		<path d="M844,908.6c13.6-28,28.5-53.1,54.4-71.4c23.9-17,50.2-28.6,73.3-47.1c38.4-30.9,71.3-77.3,88.1-123.5
			c13.7-37.7,34.3-74.3,57.4-107.2c50.6-72.3,114.2-136,172.1-202.7c25.8-29.7,53.8-56,81.4-84.1c21.8-22.2,54.1-50.6,64.2-80.7
			c-7,31-30.3,58.8-41.5,88.7c-5,13.4-6.8,28.4-12.5,41.5c-6.4,14.7-16.4,28.8-25.3,42.1c-17.6,26-42.1,46.1-61.5,70.6
			c-20.9,26.5-45.6,50.3-63,79.5c-17.8,29.9-39,58.7-55.2,89.6c-14.6,27.8-34.4,49.6-51.4,75.7c-24.7,38-41.8,81.3-66.2,119.3
			c28.2-38,53.2-76.4,93.7-103.2c24.1-16,47-33.3,72-48c23.9-14.1,46.2-29,65.6-49.1c33.1-34.3,60.9-74.5,95.9-107
			c36.2-33.5,70.9-64.6,100.4-104.7c0.2,17.7-10.6,39.3-17.7,55.2c-12.6,28.4-29.2,55-43.6,82.5c-15.3,29.2-37.2,50.5-58.7,75.2
			c-15.8,18.2-30.1,35.7-47.5,52.5c-23.6,22.6-49,44.7-69.6,70c-18.7,23-33.3,50.5-50.3,75.1c-14.3,20.7-33.1,38.2-49.8,56.9
			c-21.7,24.4-37.7,51.2-55.5,78.4c-14.6,22.3-27.9,42.2-44.7,63c-11.8,14.7-21.1,32.5-30.2,48.5c14-5.1,30.6-20.3,43.8-29.1
			c23.7-15.8,45.4-33.7,67.3-52.1c34.6-29.1,72-55.9,109.1-81.7c33.4-23.3,64.7-51.6,92.9-80.9c17.3-18,33.9-36.8,51-55.1
			c19.5-20.9,37.5-48.4,60.3-65.5c-5.4,34.4-40.7,66.9-58.6,95.2c-17.6,27.9-37.4,48.1-59.6,72.3c-17.7,19.2-38.2,35-56.2,54.3
			c-19.4,20.8-38.8,42.2-60,61.2c-39.8,35.6-92,65.1-139,88.8c-19,9.6-38,15.6-57.3,24c-16.4,7.1-42.6,13.8-54.9,26.7
			c-1.9-16,6.2-37,10.5-52.4c7.5-26.8,23.9-49.2,38.7-72.4c26.7-42,58.7-82.5,93-118.1c23.1-24,47.1-49.4,66-76.9
			c8.2-11.9,15.9-23.7,22.9-36.3c4.7-8.4,12.5-13,17.8-20.9c8.6-12.9,16.5-28.7,27.1-39.8c-9.1,1.5-18.5,14.3-24.9,21
			c-6.6,6.9-13.9,13.4-21,19.7c-21.5,19.3-37.5,44.8-60.2,62.6c-24.3,18.9-47.6,39.2-70,60.3c-20.5,19.4-35.6,42.2-53.8,63.3
			c-7.2,8.3-17.3,14.9-22.5,24.6c1.6-21.1,9.6-41.8,18.7-60.7c8.5-17.5,10.9-36.5,19.2-54.4c7.4-15.9,11.7-32.4,17.6-48.7
			c-10.9,13.5-18.6,29.8-29.9,42.7c-30.7,35.2-66.7,67.6-92.7,106.6c-24.9,37.4-43.7,77.3-60.7,118.3c-12.4,30.1-11.1,65.9-18,97.5
			c-13.1-18.1-23.1-38.8-32.7-59.5c-6.3-13.7-7.8-26.3-9.4-41.3c-1.1-10.8,4.3-19.6,8.7-28.9c4.5-9.3,4.8-16.2,7.1-25.8
			C814.7,957.1,832.6,932,844,908.6z"/>
		<path d="M79.1,551c48.1-28.9,92.1-64.9,135.8-99.9c54.7-43.8,112.8-82.8,165.9-128.5C429,281.1,468,227.5,512.8,183
			c-10.2,31.2-27.9,63.2-44.2,92c-18.8,33-29.5,68.2-57,95.5c-43.1,42.9-98.5,76.5-146,114.5c-40.5,32.4-76.5,75.5-111.1,113.9
			c-26.7,29.7-51.7,61.8-73.4,95c21.3-21.7,41.7-39,66.4-56.5c22.6-16,49.2-24.2,73.6-36.9c25.1-13.1,50.7-24.2,73.5-41.6
			c24.4-18.6,47.4-41.1,72.2-57.9c-6.7,32.6-34.5,59-49.4,87.9c-12.9,24.8-24,51.4-38.3,76c-23.1,39.7-54.2,75.4-82.1,111.6
			c-28.2,36.4-57.2,76.8-77.9,118c-25,49.7-76.6,96.6-80.4,154.3c-5.7-9.9,3.6-30.3,4.5-42.3c1.9-23.6-0.2-44.4,6.3-67.5
			c6.8-24.1,13.7-47.6,19.1-72.1c4.7-21.3,15.3-35.5,26.5-53.8c19.9-32.5,38.7-64.8,60.4-96.1c19-27.5,42.8-64.8,69.6-84.8
			c-15.2,7.3-30.1,26.8-43.4,38.7c-14.9,13.3-27.7,24.3-44.5,34.5c-26.6,16.1-58.3,28.5-81.9,48.1c-19.7,16.4-27.6,33.2-41.6,53.6
			c-10.7,15.7-20.8,40.4-34.2,53.3c1.2-28.5,9.8-61,22.1-87c13.3-28.3,21-59.2,35.5-86.9C50.6,660.1,73.3,636.6,93,615
			c24.1-26.6,47-51.9,69.5-80c-23.3,16.2-39.6,38.4-66,52c-25.8,13.3-50.6,26-73.1,44.2c-11.3,9.2-21.2,19.9-32.1,29.4
			c-7.8,6.8-12,16.1-18.2,24.1c-0.7-8.7,2.7-16.1,4.4-24.5c1.6-8,2.9-16,5.6-23.7c2.8-7.8,6.5-15.7,11.7-22.2
			C16.1,587.6,50.3,568.3,79.1,551z"/>
		<path d="M1149.3,80.1c-23.3,37.7-41.2,78.5-67.9,114c-21.8,29.1-46.2,54.3-72,79.7c-22.1,21.8-48.1,39.1-69.8,61.2
			c19.8,0.8,46.7-10.4,65.7-16.6c26.4-8.6,51-18.5,75-32.6c13.1-7.7,27.7-19,39.3-28.9c22-18.6,42.8-42.9,68.7-56.4
			c-4.7,11.8-15.8,21.8-23,32.3c-5,7.3-8,15.5-12.9,22.8c-11.3,16.9-27.5,32.4-43.3,45c-24.6,19.7-52.7,38.4-74.2,61.5
			c-22.2,23.9-33.3,52.7-58.2,73.5c-36.3,30.2-69.9,51.2-91.3,94.3c-22.8,45.8-53.9,96-88.6,133.7c-30,32.5-57.6,75.5-80.4,112.2
			c15.7-14.6,32.5-29.6,50-42.1c21.9-15.7,39-33.4,59-51.1c16.7-14.9,35.4-26.5,50.9-42.8c18.5-19.5,32.9-41.7,52.8-60.1
			c32.3-29.8,66.8-56.2,100.3-84.4c24.7-20.8,43.8-47,63.4-72.5c9.3-12.2,19.5-23.7,28.8-35.8c7.8-10.1,11.7-22.4,19.1-32.5
			c6.5-9,16.4-15.3,24.8-22.3c20.1-16.7,42.4-29.2,63.1-45.1c27.4-21.1,57.7-40.5,81.6-65.5c24.9-26.2,50.2-51.5,75-78
			c12.2-13,24.4-26.1,36-39.3c14-16.1,24.5-34.7,39-50.4c-12.7,1.6-25.5,16.4-35.9,23.7c-18.3,12.8-37,24.3-56.3,35.6
			c-31.9,18.7-59.9,39.1-86.9,64.1c-27.2,25.1-51.1,53.9-77.7,79.6c-19.4,18.8-50,33-65.5,54.5c16.2-19.6,34.7-37.4,50.9-57.1
			c15.9-19.3,31.5-38.3,46.4-58.4c28.7-38.6,58.6-77,89.3-113.9c-21.2,8-41.5,23.4-61.1,35.6c-21.4,13.3-43.7,24.2-65.7,36.4
			c-39.7,22-81.6,48.5-107.9,86.3c23.1-33.1,50.2-64.5,77.5-94.1c14.5-15.8,31.8-28.4,43.5-46.4c12.3-18.8,21.3-38.9,28.5-60.1
			c11.6-34.4,13.5-66.3,13.5-102.3c0-36.8,13.7-60.3,28-92.9c-0.9,2.1-15.1,8.4-18,11.6c-5.5,6.2-9.1,14.1-12.5,21.6
			c-7.3,16.2-12.6,31.5-24.6,45c-17.3,19.5-39.1,46.8-42.4,73.3C1179.5,27.9,1166.1,52.9,1149.3,80.1z"/>
		<path d="M960.2,356.8c-50.5,22.3-94.2,55.5-135.9,91.3c-32.3,27.7-53.8,57.9-76.1,93.4c-35,55.7-56.6,119.7-85.7,178
			c49.1-69.2,120.5-122.2,157-200.1c15.3-32.6,41.8-63.2,65.7-90.3C908.2,403,937.4,381.4,960.2,356.8z"/>
		<path d="M731.6-75c-2.6,6.7,9.6,25.1,11.1,32.2c1.8,8.4,1.6,17.2,3,25.7c3.7,22.9,2.7,44.9-0.6,67.8c-1.6,11.5-1.5,22.7-1.5,34.4
			c0.1,55.6-4.5,110.6-22.5,163.8c-9.5,28.3-25.5,52.7-38.7,79.2c-12,24.2-24.6,47.8-39,70.8c-19.5,31.3-41.3,63.4-60.1,94.1
			c3.7-16.5,11.9-32.7,18.7-48.4c10.9-24.9,19.5-46.6,26.4-72.7c8.3-31.7,30.9-59.1,31.1-91.8c0.3-36.3,13.9-71.3,22.6-106.1
			c3.6-14.4,9.4-31,10.5-45.8c1.2-17.6-0.4-35.6,0.1-53.2c-14,22-21.9,47.4-34.6,70.1c-14.5,25.9-21.8,59.3-30.4,87.6
			c-8.2,27.1-26.4,47.7-44.3,69.5c-41.8,51-99,87.5-143,136.5c1.7-15.4,21.1-33.6,29.3-46.5c10.5-16.5,20.9-33.1,32-49.2
			c17.8-25.7,37.1-50.3,57.7-73.8c17.1-19.5,24.7-33.4,27-59.7c1.6-18.9,1.2-38.1,1.2-57.3c0-39.6,2.6-76.9,12.3-115.5
			c10.5-41.6,37.5-64.3,62-97.1c-9.5,29.6-9.3,61.5-17.4,91.9c-7.5,28.4-10.6,58.2-17.8,86.3c9.2-20.8,21.2-40.3,29.8-61.6
			c6-15,13.6-29.4,22.7-42.6C698.1-13.4,719.4-44.2,731.6-75z"/>
		<path d="M643.4,935.6c30.7-27.2,60.8-55.4,94.1-79.5C757,842,778,827,795.8,810.7c13.8-12.7,25.6-27.6,39.6-40.1
			c26.7-23.9,49.3-56.5,77.5-77.8c-23.6,34.8-51.2,67.9-74.7,103.2c-21.3,32-46.4,63.6-70.6,93.5c-13.9,17.2-33.3,31.6-49.9,46.2
			c-18.8,16.5-35.4,35.9-54.8,51.3c-30.2,24-54.8,52.2-77.9,82.8c-4.8-12.7-5.2-24.8-3.5-38.5C586.1,995.2,617.3,958.7,643.4,935.6z
			"/>
		<path d="M1088.7,471c-2,10.6-13.1,22.5-18.1,32.6c-7,14.2-10.4,29.4-17.9,43.5c-14.2,26.7-38.3,48.4-50.1,76.2
			C989.8,653,979,684,965.2,713.6c-13.4,28.9-32.8,63.4-62.6,79c4.2-10.7,12.6-20,17.5-30.6c5.1-11.2,8.7-23,12.7-34.7
			c7.8-22.7,16-44.2,21.5-67.6c5.2-21.9,6.3-44.6,18.5-64.3c7.3-11.8,19.8-18.1,29.6-27.4c15-14.3,28.7-30.3,42.9-45.3
			C1056.9,510.7,1085.6,487.6,1088.7,471z"/>
		<path d="M400.1,944.6c13.7-5.3,26.8-12.7,40.1-19.1c13.8-6.6,27.5-20.7,42-24.5c-22.2,11.8-40.2,37-59.6,52.7
			c-12.4,10-28.1,15.8-40.6,25.7c-14.1,11.2-27.1,22.2-41.9,32.7c-8.9,6.3-15.9,14.1-25.4,19.9c-6.5,3.9-15.9,12.9-22.6,15.1
			c-16,5.3-16.1-14.7-15-25.9c2.3-23.2,22.5-32.2,41.6-38.1C347.5,974,372.1,955.5,400.1,944.6z"/>
		<path d="M1472.2,583.4c-5.7-14.7-26.9-13.8-37.6-7.1c-14.2,9-24.2,24.1-34.1,37.2c-14.8,19.6-32.2,35.8-49.2,53.4
			c-23.8,24.6-36.8,55-62.1,78.1c-19.6,17.9-33.4,38.9-49.2,59.9c-12.2,16.1-23.2,37.4-38.6,50.6c42.4-32.8,75.6-75.9,116.3-110.7
			c16-13.7,31.3-27.9,47-41.8c17.6-15.6,38-26.6,56.5-40.9C1438.8,648.6,1483.2,611.3,1472.2,583.4z"/>
		<path d="M1354.1,442.1c21.5-21.3,99.7-57.1,87.3-95.2c-9.3-28.6-21.9-0.8-31.4,10.6c-17.6,21.2-40.3,37.6-57.7,59
			c-15,18.4-31.2,35.8-45,55.1c-10.8,15.1-19.3,32.4-30.8,46.9C1299.9,491.4,1328.4,467.5,1354.1,442.1z"/>
		<path d="M1255.1,974.5c21.6-23.4,46.3-34.6,70.9-53.9c24.7-19.4,48.9-38.7,73.2-58.6c16.8-13.7,34.8-30.4,53.3-40.4
			c-17.6,13.3-27.9,33-41.6,49.8c-19.2,23.6-41.2,44.8-60,68.6c-25.2,31.9-59.2,55-86.1,85.3c-10,11.2-56,61.6-65.3,28.9
			C1190,1020.8,1236.6,994.6,1255.1,974.5z"/>
		<path d="M547.1,49.1c5.8-20.5,37.8-73.5,20.8-92.7c-20.9-23.7-46.7,27.1-47,43.7c-0.5,24.2-9.1,47.9-15.4,71.6
			c-8.6,32.1-24.3,58.1-35.9,88.4C506.7,134.9,534.7,92.5,547.1,49.1z"/>
		<path d="M1016.3-75.4c-13.9-29.8-42.2,29.4-47.8,38.9c-12,20.4-21.3,39.6-31.3,61.3c-9.2,19.7-24.8,40.8-29.9,61.3
			c18.7-16.9,37.6-31,53.9-50.5C977.4,16,988-2.8,999.7-25.1C1005.4-35.9,1022.3-62.4,1016.3-75.4z"/>
		<path d="M1330.1,26.9c21.6-12.8,113.2-55.1,75.8-90.5c-38.5-36.4-81.9,51.8-96.9,76.6c-14.4,23.8-28,46.7-46.7,67.1
			c7.5-7.8,18.6-14,27.6-20.5C1304,49.4,1315.1,35.9,1330.1,26.9z"/>
		<path d="M244.6,797.7c-8.4,7.5-17.5,14.4-25.6,22.4c-18.8,18.3-33.6,50.1-31.5,76.3c14.5-12,25.5-32.2,38.6-46.3
			c9.3-9.9,19.3-18.7,28.2-28.9c16.4-18.7,35.6-34.1,51.3-53.6c11.6-14.4,14.9-30.1,19.9-47.9c5.5-19.7,16.5-59.5,7.2-78.1
			c1.7,3.3-28.8,46.6-32.1,52.6c-8.8,16.1-18.9,32.3-24.7,49.8c-4.1,12.4-6.5,23.8-14,34.8C256.9,786,250.9,792,244.6,797.7z"/>
		<path d="M16.2,294.7c17-8.7,33-21.6,48.3-33c11-8.2,28.9-18.7,35.8-30.7c0.6,12.3-17.6,26.3-24.6,35.5
			c-10.6,14.2-18.4,29.2-31.1,42c-24,24.4-42.1,52.2-65.8,76.7c-13.9,14.4-38.3,39.1-60.8,26.6c-29.5-16.5,0.1-61.6,14.4-79.3
			c9.4-11.7,17.8-13.5,31.5-17.1C-18.4,310.8-0.1,303,16.2,294.7z"/>
		<path d="M198-6c4.7-5.5,16.8-14.4,15.9-22.7c-1.5-13.8-19-6.3-26.1-2.9C164.4-20.4,154.6,2.2,141.2,23
			c-12,18.8-23.1,35.5-32.1,55.9c19.7-9.8,33.4-28.2,48.2-44C170.4,20.9,185.4,8.5,198-6z"/>
		<path d="M353.8,37.2c8.9-16.7,32.3-50.2,21.1-69.9c-13.9-24.2-33.3,4.4-36.8,19.2c-4.3,18.1-9.7,36.2-17.4,53.2
			c-9.3,20.7-21,39.8-28.7,61.3c-4.4,12.1-9.8,24.1-14.9,35.9c-7.7,17.9-14.6,37.5-23.7,54c12.2-22.1,37.3-35.1,50.6-56.9
			c5.4-8.8,9.3-18.7,13.3-28.1c1.7-4.2,2.7-9,4.9-13c5.5-9.8,13-15.3,16.1-26.3C341.4,55.6,348.4,47.3,353.8,37.2z"/>
	</g>
</g>
</svg>
